<svg width="24" height="24" viewBox="0 0 24 24" fill="none" xmlns="http://www.w3.org/2000/svg">
<g clip-path="url(#clip0)">
<path d="M20.15 4.04C20.0372 4.01698 19.9359 3.95576 19.863 3.86668C19.7901 3.77759 19.7502 3.66609 19.75 3.551V2C19.75 1.46957 19.5393 0.960859 19.1642 0.585786C18.7891 0.210714 18.2804 0 17.75 0L5.25 0C4.45435 0 3.69129 0.31607 3.12868 0.87868C2.56607 1.44129 2.25 2.20435 2.25 3V21C2.25 21.7956 2.56607 22.5587 3.12868 23.1213C3.69129 23.6839 4.45435 24 5.25 24H19.75C20.2804 24 20.7891 23.7893 21.1642 23.4142C21.5393 23.0391 21.75 22.5304 21.75 22V6C21.7501 5.53894 21.5909 5.09201 21.2993 4.73484C21.0078 4.37767 20.6017 4.13221 20.15 4.04ZM5.25 2H17.5C17.5663 2 17.6299 2.02634 17.6768 2.07322C17.7237 2.12011 17.75 2.1837 17.75 2.25V3.75C17.75 3.8163 17.7237 3.87989 17.6768 3.92678C17.6299 3.97366 17.5663 4 17.5 4H5.25C4.98478 4 4.73043 3.89464 4.54289 3.70711C4.35536 3.51957 4.25 3.26522 4.25 3C4.25 2.73478 4.35536 2.48043 4.54289 2.29289C4.73043 2.10536 4.98478 2 5.25 2Z" fill="currentColor"/>
</g>
<defs>
<clipPath id="clip0">
<rect width="24" height="24" fill="white"/>
</clipPath>
</defs>
</svg>
