<?xml version="1.0" encoding="UTF-8" standalone="no"?>
<!-- Created with Inkscape (http://www.inkscape.org/) -->

<svg
   xmlns:dc="http://purl.org/dc/elements/1.1/"
   xmlns:cc="http://creativecommons.org/ns#"
   xmlns:rdf="http://www.w3.org/1999/02/22-rdf-syntax-ns#"
   xmlns:svg="http://www.w3.org/2000/svg"
   xmlns="http://www.w3.org/2000/svg"
   xmlns:xlink="http://www.w3.org/1999/xlink"
   xmlns:sodipodi="http://sodipodi.sourceforge.net/DTD/sodipodi-0.dtd"
   xmlns:inkscape="http://www.inkscape.org/namespaces/inkscape"
   id="svg2"
   sodipodi:version="0.32"
   inkscape:version="0.92.4 (5da689c313, 2019-01-14)"
   width="200"
   height="200"
   sodipodi:docname="clock.svg"
   inkscape:output_extension="org.inkscape.output.svgz.inkscape"
   inkscape:export-filename="/home/pinheiro/server/svnserver/estilo/plasma/4.2/test/image601cc.png"
   inkscape:export-xdpi="90"
   inkscape:export-ydpi="90"
   version="1.0">
  <sodipodi:namedview
     inkscape:window-height="701"
     inkscape:window-width="1366"
     inkscape:pageshadow="2"
     inkscape:pageopacity="1"
     guidetolerance="3"
     gridtolerance="4"
     objecttolerance="6"
     borderopacity="1.0"
     bordercolor="#ffffff"
     pagecolor="#1c1c1c"
     id="base"
     inkscape:zoom="0.44547728"
     inkscape:cx="-349.38688"
     inkscape:cy="57.594466"
     inkscape:window-x="0"
     inkscape:window-y="0"
     inkscape:current-layer="svg2"
     showgrid="true"
     showguides="true"
     inkscape:guide-bbox="true"
     inkscape:window-maximized="1"
     inkscape:snap-global="true"
     inkscape:object-nodes="true"
     inkscape:snap-others="true"
     inkscape:snap-nodes="true"
     inkscape:object-paths="true"
     inkscape:snap-bbox="true"
     inkscape:snap-intersection-paths="true"
     inkscape:snap-smooth-nodes="true">
  </sodipodi:namedview>
  <metadata
     id="metadata7">
    <rdf:RDF>
      <cc:Work
         rdf:about="">
        <dc:format>image/svg+xml</dc:format>
        <dc:type
           rdf:resource="http://purl.org/dc/dcmitype/StillImage" />
        <dc:title></dc:title>
      </cc:Work>
    </rdf:RDF>
  </metadata>
  <defs
     id="defs5">
    <style
       type="text/css"
       id="current-color-scheme">
      .ColorScheme-Background{
        color:#1A1E24;
      }
      .ColorScheme-Highlight{
        color:#F9F9F9;
      }
      </style>
  </defs>
  <circle
     style="opacity:1;fill:currentColor;fill-opacity:1;stroke:none"
     id="HandCenterScrew"
     class="ColorScheme-Highlight"
     inkscape:label="#path4580"
     cx="280.02209"
     cy="99.977905"
     r="5" />
  <g
     id="ClockFace"
     inkscape:label="#g907">
    <rect
       style="opacity:0.00499998;fill:#717171;fill-opacity:1;stroke:none"
       id="rect4069"
       width="214"
       height="214"
       x="-7.0000277"
       y="-6.9999919" />
    <path
       inkscape:label="#path5480"
       id="marcas"
       class="ColorScheme-Highlight"
       d="M 100.35156 10.3125 L 99.373047 10.318359 L 99.386719 14.683594 C 99.714353 14.680994 100.0382 14.674581 100.36523 14.675781 L 100.35156 10.3125 z M 91.119141 10.941406 L 90.113281 11.037109 L 90.585938 15.408203 C 90.911877 15.372163 91.233499 15.315509 91.560547 15.283203 L 91.119141 10.941406 z M 108.76758 10.941406 L 108.32617 15.283203 C 108.65233 15.314713 108.97566 15.341713 109.30078 15.376953 L 109.74219 11.037109 L 108.76758 10.941406 z M 81.871094 12.357422 L 80.865234 12.578125 L 81.777344 16.855469 C 82.111739 16.782249 82.447198 16.704019 82.783203 16.634766 L 81.871094 12.357422 z M 118.01562 12.357422 L 117.10352 16.572266 C 117.43359 16.639426 117.74946 16.722003 118.07812 16.792969 L 118.99023 12.578125 L 118.01562 12.357422 z M 72.8125 14.685547 L 71.869141 15 L 73.220703 19.183594 C 73.535166 19.07921 73.847886 18.969943 74.164062 18.869141 L 72.8125 14.685547 z M 127.04297 14.685547 L 125.69141 18.806641 C 126.01744 18.909617 126.3417 19.014313 126.66602 19.121094 L 128.01758 15 L 127.04297 14.685547 z M 64.066406 18.019531 L 63.154297 18.427734 L 64.916016 22.423828 C 65.229274 22.281554 65.544105 22.15224 65.859375 22.013672 L 64.066406 18.019531 z M 135.78711 18.019531 L 134.05859 21.919922 C 134.37043 22.056087 134.692 22.188347 135.00195 22.328125 L 136.73242 18.427734 L 135.78711 18.019531 z M 55.574219 22.361328 L 54.724609 22.863281 L 56.832031 26.480469 C 57.111567 26.315948 57.400093 26.171163 57.681641 26.009766 L 55.574219 22.361328 z M 144.0293 22.361328 L 141.98438 25.916016 C 142.27889 26.083938 142.57303 26.246643 142.86523 26.417969 L 144.91016 22.863281 L 144.0293 22.361328 z M 47.708984 27.425781 L 46.892578 27.990234 L 49.376953 31.419922 C 49.647633 31.21973 49.922119 31.01931 50.195312 30.822266 L 47.708984 27.425781 z M 151.89453 27.425781 L 149.50391 30.728516 C 149.77248 30.921511 150.05418 31.098884 150.32031 31.294922 L 152.71094 27.990234 L 151.89453 27.425781 z M 98.929688 29.728516 L 98.929688 33.417969 L 101.07812 33.417969 L 101.07812 29.728516 L 98.929688 29.728516 z M 40.412109 33.275391 L 39.6875 33.935547 L 42.488281 37.050781 C 42.729667 36.829863 42.998184 36.640038 43.242188 36.421875 L 40.412109 33.275391 z M 159.19141 33.275391 L 156.45508 36.294922 C 156.70503 36.517423 156.96186 36.731643 157.20898 36.957031 L 159.94727 33.935547 L 159.19141 33.275391 z M 65.791016 38.609375 L 63.929688 39.683594 L 65.773438 42.876953 L 67.634766 41.802734 L 65.791016 38.609375 z M 134.21875 38.609375 L 132.37305 41.802734 L 134.23438 42.876953 L 136.07812 39.683594 L 134.21875 38.609375 z M 33.775391 39.849609 L 33.113281 40.605469 L 36.259766 43.435547 C 36.480415 43.186593 36.696455 42.927968 36.919922 42.681641 L 33.775391 39.849609 z M 165.82812 39.849609 L 162.80859 42.554688 C 163.04272 42.811835 163.27094 43.081782 163.50195 43.341797 L 166.52148 40.605469 L 165.82812 39.849609 z M 99.128906 44.90625 L 99.128906 56.974609 L 100.76367 56.974609 L 100.76367 44.90625 L 99.128906 44.90625 z M 27.861328 47.085938 L 27.263672 47.871094 L 30.722656 50.388672 C 30.916125 50.118569 31.092572 49.838053 31.289062 49.570312 L 27.861328 47.085938 z M 171.74219 47.085938 L 168.4707 49.476562 C 168.66245 49.737125 168.84826 49.998902 169.03711 50.261719 L 172.33984 47.871094 L 171.74219 47.085938 z M 22.701172 54.886719 L 22.199219 55.767578 L 25.910156 57.90625 C 26.07685 57.612624 26.243847 57.316825 26.414062 57.025391 L 22.701172 54.886719 z M 176.90234 54.886719 L 173.37891 56.931641 C 173.55002 57.223983 173.71498 57.517956 173.88281 57.8125 L 177.4043 55.767578 L 176.90234 54.886719 z M 18.423828 63.191406 L 18.015625 64.103516 L 21.916016 65.833984 C 22.050197 65.526645 22.186617 65.227311 22.324219 64.921875 L 18.423828 63.191406 z M 181.17969 63.191406 L 177.46875 64.826172 C 177.60595 65.129564 177.7433 65.433006 177.87695 65.738281 L 181.58789 64.103516 L 181.17969 63.191406 z M 39.671875 63.941406 L 38.595703 65.802734 L 41.791016 67.646484 L 42.865234 65.785156 L 39.671875 63.941406 z M 160.33789 63.941406 L 157.14453 65.785156 L 158.21875 67.646484 L 161.41211 65.802734 L 160.33789 63.941406 z M 15.027344 71.904297 L 14.710938 72.847656 L 18.800781 74.169922 C 18.899441 73.859474 18.982415 73.535461 19.083984 73.226562 L 15.027344 71.904297 z M 184.57617 71.904297 L 180.70703 73.162109 C 180.80983 73.473837 180.92225 73.792164 181.02148 74.105469 L 184.89062 72.847656 L 184.57617 71.904297 z M 12.541016 80.931641 L 12.353516 81.908203 L 16.537109 82.789062 C 16.603549 82.46283 16.685796 82.137363 16.755859 81.8125 L 12.541016 80.931641 z M 187.03125 80.931641 L 183.06641 81.78125 C 183.13591 82.104029 183.18984 82.433674 183.25586 82.757812 L 187.25 81.908203 L 187.03125 80.931641 z M 11.0625 90.148438 L 10.9375 91.125 L 15.246094 91.564453 C 15.277294 91.240354 15.306557 90.912875 15.341797 90.589844 L 11.0625 90.148438 z M 188.57227 90.148438 L 184.48242 90.589844 C 184.51772 90.912875 184.54477 91.240354 184.57617 91.564453 L 188.66602 91.125 L 188.57227 90.148438 z M 33.40625 98.941406 L 29.716797 98.943359 L 29.716797 101.0918 L 33.40625 101.08984 L 33.40625 98.941406 z M 166.60352 98.941406 L 166.60352 101.08984 L 170.29297 101.0918 L 170.29297 98.941406 L 166.60352 98.941406 z M 45.330078 99.181641 L 45.330078 100.81641 L 57.398438 100.81641 L 57.398438 99.181641 L 45.330078 99.181641 z M 142.60156 99.181641 L 142.60156 100.81641 L 154.66992 100.81641 L 154.66992 99.181641 L 142.60156 99.181641 z M 14.376953 99.597656 L 10.015625 99.611328 L 10.023438 100.59375 L 14.384766 100.57812 C 14.381766 100.25047 14.375953 99.924739 14.376953 99.597656 z M 189.97461 99.597656 L 185.61133 99.611328 L 185.61914 100.59375 L 189.98242 100.57812 C 189.97942 100.25047 189.97361 99.924739 189.97461 99.597656 z M 15.277344 108.36328 L 10.9375 108.80273 L 11.0625 109.81055 L 15.373047 109.36914 C 15.335807 109.03427 15.310594 108.69932 15.277344 108.36328 z M 184.54492 108.36328 C 184.51162 108.69932 184.48847 109.03427 184.45117 109.36914 L 188.57227 109.81055 L 188.66602 108.80273 L 184.54492 108.36328 z M 16.599609 117.13867 L 12.353516 118.05078 L 12.541016 119.02734 L 16.820312 118.11328 C 16.748832 117.78881 16.66685 117.4645 16.599609 117.13867 z M 183.22461 117.20117 C 183.15691 117.52692 183.07517 117.85334 183.00391 118.17773 L 187.03125 119.02539 L 187.25 118.05078 L 183.22461 117.20117 z M 18.863281 125.72656 L 14.710938 127.08008 L 15.027344 128.05469 L 19.179688 126.70117 C 19.071478 126.37578 18.967665 126.05371 18.863281 125.72656 z M 180.92773 125.78906 C 180.82295 126.11608 180.72189 126.43837 180.61328 126.76367 L 184.57617 128.05469 L 184.89062 127.07812 L 180.92773 125.78906 z M 41.791016 132.38477 L 38.595703 134.23047 L 39.671875 136.0918 L 42.865234 134.24609 L 41.791016 132.38477 z M 158.21875 132.38477 L 157.14453 134.24609 L 160.33789 136.0918 L 161.41211 134.23047 L 158.21875 132.38477 z M 22.009766 134.0625 L 18.015625 135.85547 L 18.423828 136.76758 L 22.417969 134.97461 C 22.279461 134.66952 22.144754 134.36949 22.009766 134.0625 z M 177.7832 134.15625 C 177.64842 134.46159 177.51126 134.76494 177.37305 135.06836 L 181.17969 136.76758 L 181.58789 135.85547 L 177.7832 134.15625 z M 26.037109 141.99023 L 22.199219 144.19141 L 22.701172 145.07227 L 26.539062 142.86914 C 26.368037 142.57824 26.20471 142.2833 26.037109 141.99023 z M 173.75586 142.08398 C 173.58715 142.378 173.42389 142.67307 173.25195 142.96484 L 176.90234 145.07227 L 177.4043 144.19141 L 173.75586 142.08398 z M 99.123047 143.02344 L 99.123047 155.0918 L 100.75781 155.0918 L 100.75781 143.02344 L 99.123047 143.02344 z M 30.818359 149.47656 L 27.263672 152.05469 L 27.861328 152.87305 L 31.416016 150.29297 C 31.215198 150.02088 31.015957 149.75109 30.818359 149.47656 z M 168.91211 149.57031 C 168.71775 149.83962 168.54319 150.12173 168.3457 150.38867 L 171.74219 152.87305 L 172.33984 152.05469 L 168.91211 149.57031 z M 36.416016 156.39648 L 33.113281 159.35352 L 33.775391 160.10742 L 37.078125 157.15039 C 36.852443 156.90305 36.638881 156.64646 36.416016 156.39648 z M 163.34375 156.49023 C 163.11586 156.74518 162.88327 156.99392 162.65234 157.24609 L 165.82812 160.10742 L 166.52148 159.35352 L 163.34375 156.49023 z M 65.773438 157.15625 L 63.929688 160.35156 L 65.791016 161.42578 L 67.634766 158.23047 L 65.773438 157.15625 z M 134.23438 157.15625 L 132.37305 158.23047 L 134.21875 161.42578 L 136.07812 160.35156 L 134.23438 157.15625 z M 42.613281 162.71875 L 39.6875 165.99023 L 40.412109 166.68164 L 43.369141 163.37891 C 43.1193 163.1564 42.860504 162.94413 42.613281 162.71875 z M 157.08398 162.8125 C 156.83132 163.04209 156.5837 163.27927 156.32812 163.50586 L 159.19141 166.68164 L 159.94727 165.99023 L 157.08398 162.8125 z M 98.929688 166.61523 L 98.931641 170.30469 L 101.07812 170.30469 L 101.07812 166.61523 L 98.929688 166.61523 z M 49.470703 168.34961 L 46.892578 171.9043 L 47.708984 172.50195 L 50.289062 168.94727 C 50.015665 168.75064 49.741682 168.5494 49.470703 168.34961 z M 150.19531 168.44336 C 149.92395 168.64256 149.65085 168.84496 149.37695 169.04102 L 151.89453 172.50195 L 152.71094 171.9043 L 150.19531 168.44336 z M 56.925781 173.25781 L 54.724609 177.0625 L 55.574219 177.56641 L 57.775391 173.72852 C 57.493543 173.5677 57.205617 173.42196 56.925781 173.25781 z M 142.74023 173.32031 C 142.45557 173.48656 142.17742 173.65922 141.89062 173.82227 L 144.0293 177.56641 L 144.91016 177.0625 L 142.74023 173.32031 z M 64.791016 177.3457 L 63.029297 181.3418 L 63.941406 181.75 L 65.734375 177.75391 C 65.419105 177.61535 65.104271 177.48797 64.791016 177.3457 z M 134.875 177.43945 C 134.56505 177.57924 134.24348 177.71344 133.93164 177.84961 L 135.66211 181.75 L 136.60547 181.33984 L 134.875 177.43945 z M 73.095703 180.58594 L 71.742188 184.76953 L 72.685547 185.08398 L 74.039062 180.90039 C 73.722889 180.79962 73.410169 180.69033 73.095703 180.58594 z M 126.53906 180.64844 C 126.21473 180.75521 125.89047 180.85993 125.56445 180.96289 L 126.91797 185.08398 L 127.89258 184.76953 L 126.53906 180.64844 z M 81.650391 182.91406 L 80.738281 187.19141 L 81.746094 187.41211 L 82.658203 183.13281 C 82.322199 183.06351 81.984785 182.98728 81.650391 182.91406 z M 117.95312 182.97656 C 117.62447 183.04766 117.30666 183.13011 116.97656 183.19727 L 117.88867 187.41211 L 118.86523 187.19141 L 117.95312 182.97656 z M 90.458984 184.35938 L 90.458984 184.36133 L 89.988281 188.73242 L 90.994141 188.82617 L 91.433594 184.48633 C 91.106547 184.45393 90.784923 184.39539 90.458984 184.35938 z M 109.17578 184.39258 C 108.85066 184.42788 108.5273 184.45483 108.20117 184.48633 L 108.64062 188.82617 L 109.61523 188.73242 L 109.17578 184.39258 z M 100.35156 185.36719 L 99.373047 185.375 L 99.386719 189.73828 C 99.714353 189.73528 100.0382 189.72947 100.36523 189.73047 L 100.35156 185.36719 z "
       style="opacity:1;fill:currentColor;fill-opacity:1" />
    <circle
       inkscape:label="#path5627"
       id="aro1"
       class="ColorScheme-Highlight"
       style="fill:none;stroke:currentColor;stroke-width:1.5;stroke-miterlimit:4;stroke-dasharray:none;stroke-opacity:1"
       cx="100.00058"
       cy="99.999496"
       r="96.605507" />
    <circle
       inkscape:label="#path5627-0"
       id="aro2"
       class="ColorScheme-Highlight"
       style="fill:none;stroke:currentColor;stroke-width:1.5;stroke-miterlimit:4;stroke-dasharray:none;stroke-opacity:1"
       cx="99.994743"
       cy="99.992096"
       r="78.744209" />
    <circle
       inkscape:label="#path5627-6"
       id="aro3"
       class="ColorScheme-Highlight"
       style="fill:none;stroke:currentColor;stroke-width:1.5;stroke-miterlimit:4;stroke-dasharray:none;stroke-opacity:1"
       cx="100.00058"
       cy="99.999496"
       r="58.8983" />
    <circle
       inkscape:label="#path5627-3"
       id="aro4"
       class="ColorScheme-Highlight"
       style="fill:none;stroke:currentColor;stroke-width:1.5;stroke-miterlimit:4;stroke-dasharray:none;stroke-opacity:1"
       cx="100.02209"
       cy="100"
       r="40.044636" />
    <circle
       inkscape:label="#path5627-7"
       id="aro5"
       class="ColorScheme-Highlight"
       style="fill:none;stroke:currentColor;stroke-width:1.5;stroke-miterlimit:4;stroke-dasharray:none;stroke-opacity:1"
       cx="100.02209"
       cy="100"
       r="11.26803" />
  </g>
  <g
     id="SecondHand"
     inkscape:label="#g901">
    <rect
       inkscape:label="#rect6212"
       style="fill:currentColor;fill-opacity:1"
       id="palos"
       class="ColorScheme-Highlight"
       width="95.235672"
       height="1.7321703"
       x="99.18676"
       y="-220.93649"
       transform="matrix(-5.8195804e-4,0.99999983,-0.99999962,-8.734682e-4,0,0)" />
    <rect
       style="opacity:0.01000001;fill:#00dfff;fill-opacity:1;stroke:none"
       id="rect4677"
       width="8.0000019"
       height="6.999999"
       x="215.99101"
       y="96.011322" />
    <path
       inkscape:label="#path6214"
       style="fill:currentColor;fill-opacity:1"
       d="m 219.03692,101.72471 c -0.92548,-0.53521 -1.24186,-1.71932 -0.70666,-2.644789 0.53521,-0.925492 1.71933,-1.241871 2.64481,-0.706665 0.92548,0.535206 1.24186,1.719324 0.70664,2.644814 -0.53519,0.92547 -1.71931,1.24185 -2.64479,0.70664 z"
       id="puntas"
       class="ColorScheme-Highlight"
       inkscape:connector-curvature="0" />
  </g>
  <g
     id="MinuteHand"
     inkscape:label="#g893">
    <rect
       inkscape:label="#rect6212-2"
       style="fill:currentColor;fill-opacity:1"
       id="palom"
       class="ColorScheme-Highlight"
       width="76.810341"
       height="2.6888597"
       x="99.348389"
       y="-241.47527"
       transform="matrix(-0.00112008,0.99999937,-0.9999999,-4.5382603e-4,0,0)" />
    <rect
       style="opacity:0.01000001;fill:#00dfff;fill-opacity:1;stroke:none"
       id="rect4677-2"
       width="8.0000019"
       height="6.999999"
       x="236.00603"
       y="96.089767" />
    <path
       inkscape:label="#path6214-0"
       style="fill:currentColor;fill-opacity:1"
       d="m 239.05193,101.80316 c -0.92548,-0.53521 -1.24186,-1.71932 -0.70666,-2.644789 0.53521,-0.925492 1.71933,-1.241871 2.64481,-0.706665 0.92548,0.535206 1.24186,1.719324 0.70664,2.644814 -0.53519,0.92547 -1.71931,1.24185 -2.64479,0.70664 z"
       id="puntam"
       class="ColorScheme-Highlight"
       inkscape:connector-curvature="0" />
  </g>
  <g
     id="HourHand"
     inkscape:label="#g885">
    <path
       inkscape:label="#rect6212-6"
       id="paloh"
       class="ColorScheme-Highlight"
       d="m 258.065,100.08468 -0.0897,56.30774 h 3.96846 l 0.0941,-56.30576 z"
       style="fill:currentColor;fill-opacity:1"
       inkscape:connector-curvature="0" />
    <rect
       style="opacity:0.01000001;fill:#00dfff;fill-opacity:1;stroke:none"
       id="rect4677-8"
       width="8.0000019"
       height="6.999999"
       x="256.0296"
       y="96.080124" />
    <path
       inkscape:label="#path6214-1"
       style="fill:currentColor;fill-opacity:1"
       d="m 259.05798,101.82382 c -0.94222,-0.54489 -1.26432,-1.75041 -0.71944,-2.692615 0.54489,-0.942224 1.75041,-1.264323 2.69263,-0.719441 0.94222,0.544882 1.26432,1.750406 0.71942,2.692636 -0.54487,0.94221 -1.75039,1.2643 -2.69261,0.71942 z"
       id="puntah"
       class="ColorScheme-Highlight"
       inkscape:connector-curvature="0" />
  </g>
</svg>
