<svg xmlns="http://www.w3.org/2000/svg" xmlns:xlink="http://www.w3.org/1999/xlink" width="161" height="208" viewBox="0 0 161 208" version="1.1"><title>Group</title><desc>Created with Sketch.</desc><defs><path d="M155.47 125.64C155.47 176.55 128.09 202 73.34 202L-0.34 202 -0.34 0.34 38 0.34 73.34 0.34C81.31 0.34 88.55 1.59 95.13 3.74L96 6 152 62C152 62 152 62 154.66 63.03 155.21 67.63 155.47 71.59 155.47 76.7L155.47 125.64ZM118.83 73.17C118.83 46.88 103.86 33.73 73.93 33.73L35.79 33.73 35.79 166.61 73.93 166.61C103.86 166.61 118.83 153.47 118.83 127.17L118.83 73.17Z" id="path-1"/></defs><g id="Page-1" stroke="none" stroke-width="1" fill="none" fill-rule="evenodd"><g id="Group" transform="translate(3.000000, 3.000000)"><mask id="mask-2" fill="white"><use xlink:href="#path-1"/></mask><use id="D" fill="white" xlink:href="#path-1"/><path d="M95 3.67L95 63 154.65 63 95 3.67Z" id="Fold" fill="#32A4FA"/></g></g></svg>
